<?xml version="1.0" encoding="UTF-8"?><!DOCTYPE svg PUBLIC "-//W3C//DTD SVG 1.1//EN" "http://www.w3.org/Graphics/SVG/1.1/DTD/svg11.dtd"><svg xmlns="http://www.w3.org/2000/svg" xmlns:xlink="http://www.w3.org/1999/xlink"><defs>
<clipPath id="clip0_14_208">
<rect width="24" height="24" fill="white"/>
</clipPath>
</defs><symbol id="arrow-next" viewBox="0 0 30 44"><g fill="none">
<path d="M0.807949 3.9333L5.05195 0.399971L28.1679 19.6566C28.5406 19.9652 28.8363 20.3321 29.0381 20.7363C29.2399 21.1404 29.3438 21.5739 29.3438 22.0116C29.3438 22.4494 29.2399 22.8828 29.0381 23.287C28.8363 23.6912 28.5406 24.0581 28.1679 24.3666L5.05195 43.6333L0.811949 40.1L22.5079 22.0166L0.807949 3.9333Z" fill="#43373D"/>
</g></symbol><symbol id="arrow-prev" viewBox="0 0 30 44"><g fill="none">
<path d="M29.1921 40.0667L24.9481 43.6L1.83205 24.3434C1.45943 24.0348 1.16372 23.6679 0.961927 23.2637C0.760135 22.8596 0.65625 22.4261 0.65625 21.9884C0.65625 21.5506 0.760135 21.1172 0.961927 20.713C1.16372 20.3088 1.45943 19.9419 1.83205 19.6334L24.9481 0.366699L29.1881 3.90003L7.49205 21.9834L29.1921 40.0667Z" fill="#43373D"/>
</g></symbol><symbol id="logo" viewBox="0 0 166 50"><g fill="none">
<path d="M27.5308 40.1395C27.5757 35.5502 26.4122 31.8182 24.9322 31.8037C23.4521 31.7893 22.2159 35.4979 22.1711 40.0871C22.1262 44.6764 23.2897 48.4085 24.7697 48.4229C26.2498 48.4374 27.486 44.7288 27.5308 40.1395Z" fill="currentColor"/>
<path d="M18.947 39.0972C21.4661 35.2608 22.5052 31.4922 21.268 30.6798C20.0307 29.8674 16.9856 32.3188 14.4666 36.1552C11.9475 39.9916 10.9084 43.7601 12.1456 44.5726C13.3829 45.385 16.4279 42.9336 18.947 39.0972Z" fill="currentColor"/>
<path d="M12.2792 33.593C16.4726 31.7278 19.3843 29.1194 18.7827 27.767C18.1812 26.4146 14.2942 26.8304 10.1008 28.6957C5.90744 30.5609 2.99571 33.1693 3.59726 34.5217C4.1988 35.8741 8.08584 35.4583 12.2792 33.593Z" fill="currentColor"/>
<path d="M18.2793 23.9745C18.5045 22.5116 15.0098 20.7597 10.4738 20.0615C5.93773 19.3633 2.07799 19.9833 1.85283 21.4462C1.62767 22.9091 5.12235 24.6609 9.65843 25.3591C14.1944 26.0573 18.0542 25.4373 18.2793 23.9745Z" fill="currentColor"/>
<path d="M19.908 20.4895C20.8882 19.3805 18.895 16.0176 15.4561 12.9783C12.0172 9.93902 8.43479 8.37426 7.45461 9.48332C6.47443 10.5924 8.46763 13.9553 11.9066 16.9946C15.3455 20.0339 18.9279 21.5986 19.908 20.4895Z" fill="currentColor"/>
<path d="M23.1514 18.4528C24.5756 18.0498 24.7171 14.1431 23.4675 9.72704C22.2179 5.31095 20.0503 2.05771 18.6261 2.46072C17.2019 2.86373 17.0604 6.77037 18.31 11.1865C19.5596 15.6025 21.7272 18.8558 23.1514 18.4528Z" fill="currentColor"/>
<path d="M31.9583 11.3239C33.2948 6.9333 33.2304 3.02462 31.8144 2.59361C30.3984 2.16259 28.1671 5.37245 26.8306 9.76304C25.4942 14.1536 25.5586 18.0623 26.9746 18.4933C28.3906 18.9243 30.6219 15.7145 31.9583 11.3239Z" fill="currentColor"/>
<path d="M45.8799 34H43.3926L40.7119 25.2812L38.0225 34H35.5352L31.2461 20.8164H34.085L36.7744 29.5791L39.4639 20.8164H41.9512L44.6318 29.5615L47.3037 20.8164H50.1514L45.8799 34ZM57.4375 34.2637C56.4355 34.2637 55.5098 34.0938 54.6602 33.7539C53.8164 33.4082 53.0811 32.9277 52.4541 32.3125C51.833 31.6914 51.3496 30.9648 51.0039 30.1328C50.6641 29.3008 50.4941 28.3926 50.4941 27.4082C50.4941 26.4238 50.6641 25.5156 51.0039 24.6836C51.3496 23.8457 51.833 23.1191 52.4541 22.5039C53.0811 21.8828 53.8164 21.4023 54.6602 21.0625C55.5098 20.7227 56.4355 20.5527 57.4375 20.5527C58.4395 20.5527 59.3623 20.7256 60.2061 21.0713C61.0498 21.4111 61.7793 21.8887 62.3945 22.5039C63.0156 23.1191 63.499 23.8428 63.8447 24.6748C64.1904 25.5068 64.3633 26.418 64.3633 27.4082C64.3633 28.3926 64.1904 29.3037 63.8447 30.1416C63.5049 30.9736 63.0244 31.6973 62.4033 32.3125C61.7822 32.9277 61.0498 33.4082 60.2061 33.7539C59.3623 34.0938 58.4395 34.2637 57.4375 34.2637ZM57.4375 31.8994C58.0293 31.8994 58.5771 31.7852 59.0811 31.5566C59.5908 31.3281 60.0332 31.0117 60.4082 30.6074C60.7832 30.1973 61.0732 29.7227 61.2783 29.1836C61.4893 28.6387 61.5947 28.0469 61.5947 27.4082C61.5947 26.7695 61.4893 26.1777 61.2783 25.6328C61.0732 25.0879 60.7832 24.6133 60.4082 24.209C60.0332 23.7988 59.5908 23.4824 59.0811 23.2598C58.5771 23.0312 58.0293 22.917 57.4375 22.917C56.8398 22.917 56.2861 23.0312 55.7764 23.2598C55.2725 23.4824 54.8301 23.7988 54.4492 24.209C54.0742 24.6133 53.7812 25.0879 53.5703 25.6328C53.3652 26.1777 53.2627 26.7695 53.2627 27.4082C53.2627 28.0469 53.3652 28.6387 53.5703 29.1836C53.7812 29.7285 54.0742 30.2061 54.4492 30.6162C54.8301 31.0205 55.2725 31.3369 55.7764 31.5654C56.2861 31.7881 56.8398 31.8994 57.4375 31.8994ZM79.7705 34H77.2832L74.6025 25.2812L71.9131 34H69.4258L65.1367 20.8164H67.9756L70.665 29.5791L73.3545 20.8164H75.8418L78.5225 29.5615L81.1943 20.8164H84.042L79.7705 34ZM89.4473 34V20.8164H97.6914V23.1807H92.1543V26.1777H97.3311V28.5508H92.1543V34H89.4473ZM108.361 34H99.748V20.8164H102.455V31.6357H108.361V34ZM115.498 34.2637C114.496 34.2637 113.57 34.0938 112.721 33.7539C111.877 33.4082 111.142 32.9277 110.515 32.3125C109.894 31.6914 109.41 30.9648 109.064 30.1328C108.725 29.3008 108.555 28.3926 108.555 27.4082C108.555 26.4238 108.725 25.5156 109.064 24.6836C109.41 23.8457 109.894 23.1191 110.515 22.5039C111.142 21.8828 111.877 21.4023 112.721 21.0625C113.57 20.7227 114.496 20.5527 115.498 20.5527C116.5 20.5527 117.423 20.7256 118.267 21.0713C119.11 21.4111 119.84 21.8887 120.455 22.5039C121.076 23.1191 121.56 23.8428 121.905 24.6748C122.251 25.5068 122.424 26.418 122.424 27.4082C122.424 28.3926 122.251 29.3037 121.905 30.1416C121.565 30.9736 121.085 31.6973 120.464 32.3125C119.843 32.9277 119.11 33.4082 118.267 33.7539C117.423 34.0938 116.5 34.2637 115.498 34.2637ZM115.498 31.8994C116.09 31.8994 116.638 31.7852 117.142 31.5566C117.651 31.3281 118.094 31.0117 118.469 30.6074C118.844 30.1973 119.134 29.7227 119.339 29.1836C119.55 28.6387 119.655 28.0469 119.655 27.4082C119.655 26.7695 119.55 26.1777 119.339 25.6328C119.134 25.0879 118.844 24.6133 118.469 24.209C118.094 23.7988 117.651 23.4824 117.142 23.2598C116.638 23.0312 116.09 22.917 115.498 22.917C114.9 22.917 114.347 23.0312 113.837 23.2598C113.333 23.4824 112.891 23.7988 112.51 24.209C112.135 24.6133 111.842 25.0879 111.631 25.6328C111.426 26.1777 111.323 26.7695 111.323 27.4082C111.323 28.0469 111.426 28.6387 111.631 29.1836C111.842 29.7285 112.135 30.2061 112.51 30.6162C112.891 31.0205 113.333 31.3369 113.837 31.5654C114.347 31.7881 114.9 31.8994 115.498 31.8994ZM137.831 34H135.344L132.663 25.2812L129.974 34H127.486L123.197 20.8164H126.036L128.726 29.5791L131.415 20.8164H133.902L136.583 29.5615L139.255 20.8164H142.103L137.831 34ZM143.43 34V20.8164H151.938V23.1807H146.137V26.1777H151.577V28.5508H146.137V31.6357H152.025V34H143.43ZM165.068 34H162.071L159.303 29.2363H156.789V34H154.082V20.8164H159.426C160.486 20.8164 161.395 20.9834 162.15 21.3174C162.906 21.6514 163.483 22.1348 163.882 22.7676C164.286 23.3945 164.488 24.1475 164.488 25.0264C164.488 25.9287 164.274 26.6992 163.847 27.3379C163.425 27.9707 162.821 28.4453 162.036 28.7617L165.068 34ZM156.789 27.083H159.224C160.026 27.083 160.642 26.916 161.069 26.582C161.503 26.2422 161.72 25.7588 161.72 25.1318C161.72 24.5049 161.503 24.0244 161.069 23.6904C160.642 23.3506 160.026 23.1807 159.224 23.1807H156.789V27.083Z" fill="currentColor"/>
<path d="M31 36.3291H165.438V37.3838H31V36.3291Z" fill="currentColor"/>
</g></symbol><symbol id="social-instagram" viewBox="0 0 24 24"><g fill="none">
<path d="M12.0001 8.87579C10.2798 8.87579 8.87589 10.2797 8.87589 12C8.87589 13.7203 10.2798 15.1242 12.0001 15.1242C13.7204 15.1242 15.1243 13.7203 15.1243 12C15.1243 10.2797 13.7204 8.87579 12.0001 8.87579ZM21.3704 12C21.3704 10.7063 21.3821 9.42423 21.3095 8.13283C21.2368 6.63283 20.8946 5.30158 19.7978 4.2047C18.6985 3.10548 17.3696 2.76564 15.8696 2.69298C14.5759 2.62033 13.2939 2.63204 12.0025 2.63204C10.7087 2.63204 9.42667 2.62033 8.13527 2.69298C6.63527 2.76564 5.30402 3.10783 4.20714 4.2047C3.10792 5.30392 2.76808 6.63283 2.69542 8.13283C2.62277 9.42658 2.63449 10.7086 2.63449 12C2.63449 13.2914 2.62277 14.5758 2.69542 15.8672C2.76808 17.3672 3.11027 18.6985 4.20714 19.7953C5.30636 20.8945 6.63527 21.2344 8.13527 21.307C9.42902 21.3797 10.711 21.368 12.0025 21.368C13.2962 21.368 14.5782 21.3797 15.8696 21.307C17.3696 21.2344 18.7009 20.8922 19.7978 19.7953C20.897 18.6961 21.2368 17.3672 21.3095 15.8672C21.3845 14.5758 21.3704 13.2938 21.3704 12ZM12.0001 16.807C9.33995 16.807 7.19308 14.6602 7.19308 12C7.19308 9.33986 9.33995 7.19298 12.0001 7.19298C14.6603 7.19298 16.8071 9.33986 16.8071 12C16.8071 14.6602 14.6603 16.807 12.0001 16.807ZM17.004 8.11876C16.3829 8.11876 15.8814 7.6172 15.8814 6.99611C15.8814 6.37501 16.3829 5.87345 17.004 5.87345C17.6251 5.87345 18.1267 6.37501 18.1267 6.99611C18.1269 7.14359 18.0979 7.28966 18.0416 7.42595C17.9852 7.56224 17.9026 7.68607 17.7983 7.79036C17.694 7.89464 17.5701 7.97733 17.4339 8.03368C17.2976 8.09004 17.1515 8.11895 17.004 8.11876Z" fill="#F9E8DC"/>
</g></symbol><symbol id="social-mobile" viewBox="0 0 24 24"><g fill="none">
<path d="M16 2H8C7.46957 2 6.96086 2.21071 6.58579 2.58579C6.21071 2.96086 6 3.46957 6 4V20C6 20.5304 6.21071 21.0391 6.58579 21.4142C6.96086 21.7893 7.46957 22 8 22H16C16.5304 22 17.0391 21.7893 17.4142 21.4142C17.7893 21.0391 18 20.5304 18 20V4C18 3.46957 17.7893 2.96086 17.4142 2.58579C17.0391 2.21071 16.5304 2 16 2ZM13 21H11V20H13V21ZM16 19H8V5H16V19Z" fill="#F9E8DC"/>
</g></symbol><symbol id="social-telegram" viewBox="0 0 24 24"><g fill="none">
<g clip-path="url(#clip0_14_208)">
<path d="M22.0517 2.12901L0.788779 10.3709C-0.0668777 10.7547 -0.356284 11.5233 0.581966 11.9404L6.03681 13.6829L19.2259 5.48962C19.9461 4.97526 20.6833 5.11241 20.0489 5.67824L8.72125 15.9877L8.36542 20.3506C8.695 21.0243 9.29847 21.0274 9.6834 20.6926L12.8174 17.7119L18.1848 21.7519C19.4314 22.4937 20.1098 22.015 20.378 20.6553L23.8985 3.89887C24.2641 2.2252 23.6407 1.48776 22.0517 2.12901Z" fill="#F9E8DC"/>
</g>

</g></symbol><symbol id="star" viewBox="0 0 30 28"><g fill="none">
<path d="M15 0L18.3677 10.3647H29.2658L20.4491 16.7705L23.8168 27.1353L15 20.7295L6.18322 27.1353L9.55093 16.7705L0.734152 10.3647H11.6323L15 0Z" fill="#866F6F"/>
</g></symbol></svg>